<svg xmlns="http://www.w3.org/2000/svg" viewBox="0 0 1024 1024" role="img" aria-label="Converted logo smooth componentwise">
  <defs>
    <linearGradient id="g" x1="204" y1="768" x2="820" y2="256" gradientUnits="userSpaceOnUse">
      <stop offset="0" stop-color="#2b9ef4"/>
      <stop offset="1" stop-color="#91f181"/>
    </linearGradient>
  </defs>
  <rect width="1024" height="1024" fill="#545454"/>
  <path d="M 488.33 59.47 C 484.77 59.64 478.54 60.02 474.98 60.30 C 471.43 60.57 465.21 61.15 461.67 61.54 C 458.12 61.93 451.93 62.69 448.40 63.21 C 444.87 63.73 438.72 64.81 435.21 65.44 C 431.70 66.06 425.56 67.16 422.06 67.87 C 418.57 68.58 412.47 69.93 409.00 70.74 C 405.53 71.55 399.47 73.07 396.02 73.98 C 392.57 74.89 386.55 76.53 383.14 77.56 C 379.72 78.58 373.78 80.52 370.41 81.66 C 367.03 82.80 361.14 84.88 357.79 86.11 C 354.45 87.34 348.60 89.53 345.29 90.86 C 341.98 92.19 336.25 94.66 332.98 96.09 C 329.72 97.52 324.02 100.08 320.79 101.60 C 317.57 103.12 311.98 105.91 308.81 107.53 C 305.63 109.15 300.11 112.06 296.98 113.78 C 293.85 115.49 288.44 118.59 285.36 120.40 C 282.29 122.21 276.96 125.46 273.94 127.36 C 270.92 129.25 265.68 132.65 262.72 134.63 C 259.76 136.62 254.62 140.17 251.73 142.25 C 248.83 144.33 243.83 148.07 240.99 150.23 C 238.16 152.39 233.23 156.23 230.46 158.47 C 227.69 160.72 222.91 164.74 220.19 167.05 C 217.48 169.36 212.73 173.41 210.09 175.80 C 207.44 178.20 202.93 182.51 200.37 185.00 C 197.82 187.48 193.42 191.91 190.90 194.44 C 188.38 196.96 183.94 201.35 181.48 203.93 C 179.02 206.52 174.80 211.12 172.46 213.81 C 170.13 216.50 166.20 221.36 163.95 224.12 C 161.70 226.89 157.77 231.74 155.59 234.56 C 153.40 237.38 149.67 242.39 147.57 245.26 C 145.46 248.14 141.82 253.21 139.80 256.15 C 137.78 259.09 134.35 264.31 132.43 267.31 C 130.51 270.32 127.24 275.63 125.40 278.69 C 123.57 281.75 120.42 287.14 118.67 290.25 C 116.92 293.36 113.94 298.84 112.28 301.99 C 110.62 305.15 107.78 310.71 106.22 313.92 C 104.66 317.13 102.02 322.78 100.57 326.04 C 99.12 329.30 96.68 335.05 95.32 338.34 C 93.97 341.64 91.66 347.44 90.38 350.77 C 89.11 354.10 86.97 359.97 85.78 363.33 C 84.59 366.69 82.55 372.59 81.49 376.00 C 80.43 379.40 78.76 385.42 77.83 388.86 C 76.90 392.30 75.38 398.36 74.50 401.81 C 73.62 405.27 71.96 411.29 71.20 414.77 C 70.44 418.26 69.37 424.41 68.80 427.93 C 68.22 431.44 67.38 437.63 66.89 441.16 C 66.41 444.70 65.63 450.89 65.16 454.43 C 64.69 457.96 63.72 464.13 63.37 467.68 C 63.02 471.23 62.71 477.47 62.53 481.03 C 62.36 484.59 62.11 490.83 62.04 494.39 C 61.97 497.96 61.99 504.20 62.00 507.77 C 62.01 511.33 61.98 517.58 62.09 521.14 C 62.20 524.70 62.55 530.94 62.83 534.49 C 63.10 538.05 63.77 544.25 64.17 547.80 C 64.58 551.34 65.44 557.52 65.86 561.06 C 66.28 564.60 66.87 570.82 67.33 574.36 C 67.78 577.89 68.65 584.08 69.26 587.59 C 69.87 591.10 71.12 597.22 71.92 600.70 C 72.72 604.17 74.36 610.19 75.28 613.64 C 76.20 617.09 77.78 623.12 78.80 626.54 C 79.82 629.95 81.82 635.87 82.95 639.25 C 84.07 642.64 86.08 648.55 87.25 651.92 C 88.42 655.29 90.43 661.20 91.70 664.53 C 92.97 667.86 95.38 673.62 96.79 676.90 C 98.19 680.18 100.69 685.90 102.23 689.11 C 103.77 692.33 106.66 697.86 108.32 701.02 C 109.98 704.18 112.98 709.65 114.67 712.79 C 116.37 715.93 119.25 721.46 121.02 724.56 C 122.78 727.66 126.03 732.99 127.91 736.02 C 129.80 739.05 133.20 744.28 135.15 747.27 C 137.10 750.25 140.49 755.49 142.53 758.42 C 144.57 761.35 148.29 766.36 150.43 769.22 C 152.56 772.07 156.35 777.03 158.56 779.83 C 160.77 782.63 164.70 787.48 167.01 790.20 C 169.33 792.91 173.47 797.58 175.91 800.18 C 178.35 802.77 182.82 807.14 185.33 809.67 C 187.85 812.20 192.23 816.64 194.77 819.15 C 197.30 821.66 201.78 826.01 204.35 828.48 C 206.93 830.94 211.46 835.23 214.09 837.64 C 216.72 840.05 221.35 844.25 224.08 846.53 C 226.82 848.82 231.76 852.63 234.60 854.79 C 237.44 856.94 242.51 860.59 245.40 862.68 C 248.29 864.77 253.33 868.45 256.27 870.46 C 259.22 872.47 264.48 875.84 267.48 877.76 C 270.49 879.68 275.76 883.02 278.81 884.87 C 281.87 886.71 287.28 889.81 290.38 891.58 C 293.47 893.36 298.87 896.50 302.02 898.16 C 305.17 899.83 310.77 902.59 314.01 904.10 C 317.24 905.60 323.02 907.96 326.26 909.46 C 329.50 910.95 335.04 913.83 338.29 915.29 C 341.54 916.75 347.31 919.16 350.64 920.42 C 353.98 921.68 359.92 923.59 363.30 924.74 C 366.67 925.89 372.56 927.96 375.95 929.05 C 379.35 930.14 385.30 931.97 388.74 932.91 C 392.18 933.85 398.26 935.26 401.73 936.08 C 405.20 936.90 411.27 938.37 414.77 939.06 C 418.26 939.75 424.45 940.63 427.96 941.27 C 431.47 941.91 437.58 943.17 441.08 943.84 C 444.59 944.51 450.71 945.77 454.23 946.27 C 457.76 946.78 463.98 947.32 467.54 947.61 C 471.09 947.91 477.32 948.28 480.88 948.47 C 484.44 948.66 490.68 948.91 494.24 949.06 C 497.81 949.22 504.04 949.57 507.60 949.64 C 511.17 949.72 517.41 949.70 520.98 949.60 C 524.54 949.50 530.77 949.05 534.33 948.89 C 537.90 948.73 544.14 948.60 547.70 948.38 C 551.26 948.16 557.48 947.68 561.02 947.26 C 564.56 946.84 570.72 945.81 574.24 945.23 C 577.76 944.66 583.91 943.59 587.42 942.94 C 590.92 942.28 597.04 941.05 600.53 940.31 C 604.02 939.58 610.12 938.25 613.60 937.45 C 617.07 936.65 623.15 935.23 626.60 934.32 C 630.05 933.41 636.04 931.65 639.45 930.61 C 642.86 929.57 648.80 927.66 652.18 926.51 C 655.55 925.36 661.41 923.20 664.76 921.98 C 668.11 920.75 673.98 918.63 677.29 917.31 C 680.61 916.00 686.35 913.55 689.61 912.10 C 692.87 910.65 698.50 907.95 701.72 906.42 C 704.94 904.90 710.59 902.24 713.78 900.64 C 716.97 899.04 722.48 896.12 725.62 894.42 C 728.75 892.72 734.22 889.70 737.29 887.89 C 740.37 886.09 745.66 882.78 748.68 880.88 C 751.70 878.98 756.96 875.61 759.94 873.65 C 762.91 871.69 768.10 868.22 771.02 866.17 C 773.94 864.13 779.00 860.47 781.86 858.34 C 784.72 856.21 789.67 852.40 792.45 850.18 C 795.24 847.95 800.03 843.95 802.76 841.64 C 805.48 839.34 810.20 835.26 812.86 832.89 C 815.52 830.51 820.11 826.28 822.71 823.84 C 825.31 821.39 829.83 817.09 832.34 814.55 C 834.85 812.02 839.12 807.47 841.54 804.85 C 843.96 802.23 848.14 797.59 850.49 794.91 C 852.84 792.22 856.87 787.46 859.15 784.71 C 861.42 781.97 865.35 777.12 867.53 774.30 C 869.71 771.48 873.41 766.45 875.51 763.56 C 877.61 760.68 881.26 755.62 883.29 752.68 C 885.32 749.75 888.79 744.56 890.73 741.57 C 892.67 738.58 896.00 733.30 897.85 730.25 C 899.69 727.20 902.81 721.79 904.56 718.68 C 906.31 715.57 909.32 710.10 910.99 706.95 C 912.65 703.80 915.48 698.23 917.06 695.03 C 918.64 691.84 921.36 686.22 922.83 682.97 C 924.31 679.72 926.75 673.98 928.12 670.68 C 929.48 667.39 931.80 661.59 933.06 658.26 C 934.32 654.92 936.40 649.03 937.55 645.66 C 938.70 642.28 940.63 636.35 941.69 632.94 C 942.76 629.54 944.58 623.57 945.54 620.13 C 946.50 616.70 948.07 610.66 948.89 607.19 C 949.72 603.72 951.01 597.61 951.75 594.12 C 952.48 590.63 953.77 584.52 954.40 581.01 C 955.02 577.50 955.91 571.32 956.40 567.79 C 956.90 564.26 957.70 558.07 958.12 554.53 C 958.55 550.98 959.24 544.78 959.57 541.23 C 959.89 537.68 960.43 531.46 960.57 527.90 C 960.72 524.33 960.65 518.09 960.67 514.52 C 960.68 510.96 960.67 504.71 960.67 501.15 C 960.66 497.58 960.73 491.34 960.65 487.77 C 960.56 484.21 960.28 477.97 960.02 474.42 C 959.77 470.86 959.12 464.65 958.74 461.10 C 958.36 457.56 957.61 451.36 957.16 447.82 C 956.72 444.28 955.98 438.08 955.43 434.56 C 954.88 431.04 953.76 424.89 953.07 421.40 C 952.38 417.90 951.05 411.80 950.25 408.32 C 949.45 404.85 947.99 398.78 947.10 395.32 C 946.21 391.87 944.57 385.85 943.57 382.43 C 942.57 379.00 940.70 373.05 939.59 369.66 C 938.48 366.27 936.47 360.36 935.26 357.00 C 934.05 353.65 931.83 347.81 930.51 344.50 C 929.20 341.18 926.81 335.42 925.41 332.14 C 924.00 328.86 921.48 323.15 919.98 319.91 C 918.49 316.68 915.77 311.06 914.18 307.87 C 912.59 304.67 909.74 299.11 908.06 295.97 C 906.37 292.83 903.34 287.37 901.54 284.29 C 899.75 281.21 896.50 275.88 894.61 272.86 C 892.72 269.83 889.34 264.58 887.37 261.61 C 885.40 258.64 881.90 253.47 879.84 250.56 C 877.78 247.65 874.07 242.62 871.93 239.77 C 869.79 236.92 865.99 231.97 863.76 229.18 C 861.54 226.39 857.58 221.57 855.26 218.86 C 852.95 216.14 848.79 211.49 846.39 208.85 C 843.99 206.21 839.74 201.64 837.27 199.07 C 834.80 196.49 830.40 192.07 827.87 189.55 C 825.35 187.03 820.92 182.63 818.33 180.18 C 815.73 177.74 811.11 173.54 808.43 171.19 C 805.75 168.84 800.97 164.81 798.23 162.54 C 795.48 160.26 790.62 156.34 787.82 154.14 C 785.02 151.93 780.07 148.12 777.21 146.00 C 774.34 143.87 769.27 140.23 766.34 138.21 C 763.40 136.19 758.16 132.79 755.17 130.85 C 752.17 128.92 746.91 125.55 743.86 123.70 C 740.81 121.86 735.40 118.75 732.30 116.98 C 729.20 115.22 723.75 112.18 720.60 110.50 C 717.45 108.83 711.88 106.01 708.68 104.44 C 705.48 102.86 699.84 100.19 696.60 98.70 C 693.36 97.21 687.66 94.67 684.37 93.29 C 681.08 91.92 675.27 89.64 671.94 88.36 C 668.60 87.09 662.75 84.92 659.39 83.74 C 656.02 82.56 650.10 80.57 646.70 79.49 C 643.31 78.41 637.33 76.60 633.90 75.64 C 630.46 74.68 624.41 73.15 620.95 72.28 C 617.49 71.42 611.43 69.93 607.94 69.16 C 604.46 68.40 598.34 67.18 594.84 66.52 C 591.33 65.86 585.18 64.76 581.66 64.19 C 578.14 63.62 571.97 62.68 568.44 62.23 C 564.90 61.78 558.69 61.13 555.14 60.81 C 551.59 60.49 545.36 60.07 541.80 59.84 C 538.24 59.61 532.01 59.19 528.45 59.08 C 524.88 58.97 518.64 59.01 515.07 59.00 C 511.51 58.99 505.26 58.95 501.70 59.01 C 498.13 59.07 491.90 59.30 488.33 59.47 Z M 483.00 101.18 C 486.22 100.97 491.88 100.75 495.11 100.68 C 498.34 100.62 504.00 100.67 507.23 100.67 C 510.46 100.66 516.12 100.66 519.35 100.67 C 522.59 100.67 528.25 100.62 531.48 100.72 C 534.70 100.82 540.35 101.17 543.57 101.43 C 546.80 101.68 552.43 102.26 555.64 102.60 C 558.85 102.95 564.47 103.61 567.68 104.03 C 570.88 104.45 576.48 105.25 579.67 105.78 C 582.86 106.31 588.42 107.38 591.58 108.03 C 594.75 108.67 600.28 109.87 603.43 110.60 C 606.58 111.33 612.07 112.70 615.20 113.51 C 618.32 114.32 623.80 115.76 626.90 116.67 C 630.00 117.58 635.37 119.35 638.44 120.36 C 641.51 121.37 646.88 123.18 649.92 124.27 C 652.96 125.36 658.26 127.36 661.27 128.53 C 664.28 129.70 669.53 131.80 672.50 133.08 C 675.47 134.35 680.62 136.70 683.54 138.08 C 686.46 139.46 691.52 142.01 694.41 143.45 C 697.30 144.90 702.37 147.41 705.22 148.93 C 708.08 150.45 713.02 153.20 715.82 154.82 C 718.61 156.44 723.44 159.39 726.20 161.08 C 728.96 162.77 733.77 165.74 736.48 167.50 C 739.19 169.26 743.87 172.44 746.52 174.29 C 749.17 176.15 753.76 179.46 756.35 181.39 C 758.94 183.32 763.41 186.79 765.94 188.80 C 768.47 190.81 772.85 194.39 775.33 196.47 C 777.80 198.55 782.10 202.23 784.50 204.40 C 786.90 206.56 791.00 210.46 793.32 212.71 C 795.64 214.96 799.64 218.96 801.92 221.25 C 804.20 223.54 808.20 227.55 810.42 229.89 C 812.65 232.23 816.48 236.39 818.62 238.82 C 820.76 241.24 824.40 245.57 826.46 248.06 C 828.52 250.56 832.07 254.96 834.06 257.51 C 836.05 260.05 839.47 264.56 841.38 267.17 C 843.29 269.78 846.56 274.40 848.39 277.06 C 850.23 279.72 853.38 284.42 855.15 287.12 C 856.92 289.83 859.97 294.59 861.66 297.34 C 863.36 300.09 866.29 304.93 867.90 307.74 C 869.50 310.55 872.19 315.53 873.67 318.40 C 875.16 321.27 877.64 326.35 879.04 329.26 C 880.44 332.18 882.85 337.30 884.18 340.24 C 885.51 343.19 887.81 348.36 889.04 351.35 C 890.27 354.34 892.24 359.64 893.39 362.66 C 894.54 365.68 896.59 370.96 897.66 374.01 C 898.73 377.06 900.48 382.44 901.43 385.53 C 902.39 388.61 903.98 394.04 904.85 397.16 C 905.71 400.27 907.15 405.74 907.93 408.88 C 908.71 412.02 909.98 417.53 910.66 420.69 C 911.34 423.85 912.44 429.40 913.01 432.58 C 913.58 435.76 914.47 441.35 914.93 444.55 C 915.39 447.75 916.10 453.36 916.47 456.57 C 916.84 459.79 917.41 465.41 917.70 468.63 C 917.99 471.85 918.45 477.49 918.62 480.72 C 918.79 483.95 918.94 489.60 918.99 492.83 C 919.04 496.07 919.00 501.72 919.00 504.96 C 919.00 508.19 919.04 513.85 919.00 517.08 C 918.95 520.31 918.84 525.97 918.66 529.19 C 918.49 532.42 918.00 538.06 917.70 541.28 C 917.41 544.50 916.86 550.13 916.48 553.34 C 916.09 556.55 915.32 562.15 914.82 565.35 C 914.33 568.54 913.38 574.12 912.78 577.29 C 912.17 580.47 911.02 586.01 910.31 589.16 C 909.61 592.32 908.30 597.82 907.52 600.96 C 906.73 604.09 905.32 609.57 904.45 612.68 C 903.57 615.80 901.94 621.21 900.96 624.29 C 899.98 627.37 898.15 632.73 897.08 635.78 C 896.01 638.83 894.08 644.15 892.92 647.16 C 891.76 650.18 889.63 655.42 888.36 658.40 C 887.10 661.37 884.80 666.54 883.45 669.47 C 882.09 672.41 879.64 677.51 878.20 680.40 C 876.77 683.30 874.22 688.35 872.71 691.21 C 871.19 694.06 868.43 699.00 866.81 701.80 C 865.19 704.59 862.23 709.41 860.52 712.16 C 858.82 714.91 855.79 719.69 854.04 722.40 C 852.28 725.12 849.18 729.85 847.35 732.51 C 845.51 735.17 842.20 739.76 840.27 742.35 C 838.34 744.94 834.87 749.42 832.85 751.94 C 830.83 754.46 827.19 758.79 825.10 761.26 C 823.00 763.72 819.30 768.00 817.15 770.41 C 814.99 772.81 811.15 776.97 808.92 779.31 C 806.68 781.64 802.69 785.65 800.40 787.93 C 798.11 790.21 794.11 794.21 791.76 796.44 C 789.42 798.67 785.26 802.50 782.83 804.63 C 780.41 806.77 776.08 810.41 773.59 812.47 C 771.10 814.54 766.71 818.10 764.17 820.11 C 761.64 822.12 757.18 825.60 754.59 827.53 C 752.00 829.46 747.40 832.76 744.74 834.59 C 742.07 836.42 737.33 839.50 734.60 841.24 C 731.88 842.99 727.08 845.98 724.33 847.68 C 721.58 849.37 716.76 852.33 713.95 853.94 C 711.15 855.55 706.17 858.24 703.30 859.73 C 700.44 861.22 695.35 863.71 692.45 865.12 C 689.54 866.54 684.45 869.00 681.51 870.36 C 678.58 871.71 673.42 874.03 670.45 875.31 C 667.48 876.58 662.24 878.72 659.24 879.92 C 656.24 881.12 650.98 883.21 647.93 884.28 C 644.88 885.36 639.46 886.99 636.38 887.96 C 633.30 888.94 627.92 890.68 624.81 891.59 C 621.71 892.49 616.24 893.93 613.11 894.74 C 609.98 895.54 604.49 896.91 601.34 897.62 C 598.18 898.33 592.63 899.42 589.46 900.05 C 586.29 900.68 580.74 901.81 577.56 902.35 C 574.37 902.89 568.77 903.66 565.56 904.09 C 562.36 904.53 556.75 905.25 553.54 905.60 C 550.32 905.96 544.70 906.56 541.47 906.76 C 538.25 906.95 532.59 906.99 529.35 907.09 C 526.12 907.18 520.47 907.43 517.24 907.48 C 514.01 907.52 508.35 907.48 505.12 907.41 C 501.89 907.33 496.24 907.09 493.01 906.93 C 489.78 906.77 484.13 906.47 480.91 906.18 C 477.69 905.90 472.08 905.16 468.87 904.79 C 465.66 904.42 460.04 903.81 456.83 903.39 C 453.63 902.97 448.02 902.22 444.83 901.66 C 441.65 901.11 436.13 899.87 432.96 899.22 C 429.79 898.57 424.23 897.54 421.09 896.79 C 417.94 896.04 412.49 894.52 409.38 893.63 C 406.28 892.74 400.87 891.07 397.78 890.12 C 394.69 889.16 389.30 887.46 386.22 886.49 C 383.13 885.52 377.69 883.96 374.65 882.87 C 371.61 881.78 366.40 879.56 363.42 878.31 C 360.44 877.05 355.27 874.76 352.31 873.45 C 349.36 872.15 344.18 869.86 341.25 868.51 C 338.31 867.16 333.17 864.80 330.28 863.35 C 327.39 861.90 322.43 859.17 319.58 857.65 C 316.73 856.12 311.71 853.52 308.90 851.93 C 306.09 850.33 301.26 847.38 298.51 845.68 C 295.76 843.97 291.01 840.91 288.30 839.15 C 285.59 837.39 280.83 834.32 278.18 832.48 C 275.52 830.63 270.98 827.26 268.40 825.32 C 265.81 823.38 261.32 819.93 258.79 817.92 C 256.26 815.91 251.85 812.36 249.41 810.25 C 246.96 808.13 242.82 804.28 240.47 802.07 C 238.11 799.85 234.07 795.89 231.73 793.66 C 229.40 791.42 225.25 787.58 222.96 785.29 C 220.68 783.00 216.82 778.86 214.61 776.50 C 212.40 774.15 208.53 770.02 206.37 767.61 C 204.21 765.21 200.51 760.93 198.43 758.45 C 196.36 755.98 192.84 751.55 190.82 749.02 C 188.81 746.49 185.25 742.09 183.31 739.51 C 181.36 736.93 178.12 732.29 176.25 729.66 C 174.38 727.02 171.01 722.47 169.26 719.76 C 167.50 717.04 164.74 712.10 163.09 709.32 C 161.43 706.55 158.46 701.73 156.85 698.93 C 155.25 696.12 152.59 691.13 151.06 688.28 C 149.53 685.43 146.86 680.44 145.39 677.56 C 143.93 674.68 141.43 669.60 140.09 666.66 C 138.75 663.72 136.58 658.49 135.34 655.51 C 134.10 652.53 131.97 647.29 130.78 644.28 C 129.60 641.27 127.52 636.01 126.45 632.96 C 125.37 629.91 123.68 624.51 122.73 621.42 C 121.78 618.34 120.16 612.91 119.31 609.79 C 118.47 606.67 117.12 601.18 116.38 598.03 C 115.64 594.89 114.45 589.36 113.74 586.20 C 113.02 583.05 111.71 577.55 111.03 574.39 C 110.36 571.22 109.22 565.68 108.69 562.49 C 108.16 559.31 107.41 553.70 107.04 550.49 C 106.66 547.28 106.11 541.64 105.88 538.42 C 105.65 535.20 105.47 529.54 105.33 526.31 C 105.19 523.08 104.90 517.43 104.81 514.20 C 104.73 510.97 104.68 505.31 104.67 502.08 C 104.65 498.85 104.62 493.19 104.71 489.96 C 104.80 486.73 105.12 481.08 105.34 477.85 C 105.56 474.63 106.08 468.99 106.38 465.78 C 106.69 462.56 107.22 456.92 107.60 453.72 C 107.98 450.51 108.72 444.90 109.23 441.71 C 109.75 438.52 110.86 432.97 111.48 429.79 C 112.09 426.62 113.20 421.07 113.86 417.91 C 114.53 414.75 115.72 409.21 116.49 406.08 C 117.25 402.94 118.73 397.47 119.61 394.36 C 120.49 391.25 122.11 385.83 123.09 382.75 C 124.07 379.67 125.85 374.30 126.93 371.25 C 128.01 368.21 130.04 362.93 131.22 359.92 C 132.40 356.91 134.52 351.66 135.78 348.69 C 137.05 345.71 139.33 340.54 140.68 337.60 C 142.03 334.66 144.44 329.54 145.88 326.65 C 147.32 323.76 149.95 318.74 151.48 315.90 C 153.02 313.06 155.77 308.11 157.40 305.32 C 159.02 302.52 161.98 297.70 163.68 294.95 C 165.38 292.20 168.39 287.41 170.15 284.70 C 171.92 282.00 175.09 277.31 176.94 274.66 C 178.79 272.01 182.09 267.41 184.02 264.82 C 185.95 262.23 189.40 257.75 191.41 255.21 C 193.42 252.68 197.00 248.30 199.08 245.83 C 201.16 243.35 204.86 239.07 207.01 236.66 C 209.17 234.25 213.00 230.09 215.23 227.75 C 217.46 225.41 221.44 221.39 223.74 219.11 C 226.03 216.83 230.08 212.88 232.43 210.66 C 234.78 208.45 238.95 204.62 241.37 202.48 C 243.80 200.35 248.12 196.70 250.61 194.64 C 253.11 192.58 257.51 189.02 260.05 187.03 C 262.59 185.03 267.09 181.59 269.69 179.67 C 272.29 177.75 276.89 174.46 279.55 172.63 C 282.21 170.79 286.92 167.66 289.64 165.91 C 292.36 164.17 297.17 161.19 299.93 159.51 C 302.70 157.83 307.55 154.93 310.36 153.33 C 313.18 151.74 318.16 149.07 321.02 147.56 C 323.89 146.06 328.92 143.48 331.82 142.05 C 334.72 140.62 339.81 138.16 342.76 136.82 C 345.70 135.48 350.91 133.28 353.89 132.03 C 356.87 130.78 362.10 128.62 365.11 127.45 C 368.13 126.28 373.43 124.32 376.48 123.24 C 379.53 122.16 384.89 120.34 387.96 119.36 C 391.04 118.38 396.46 116.73 399.57 115.86 C 402.68 114.98 408.17 113.59 411.30 112.80 C 414.43 112.01 419.92 110.63 423.07 109.92 C 426.23 109.21 431.78 108.10 434.95 107.50 C 438.13 106.91 443.70 105.95 446.89 105.43 C 450.09 104.91 455.68 104.05 458.88 103.62 C 462.09 103.20 467.71 102.60 470.93 102.27 C 474.14 101.94 479.78 101.40 483.00 101.18 Z" fill="url(#g)" fill-rule="evenodd"/>
  <path d="M 479.33 219.65 C 477.70 220.05 475.53 220.89 474.08 221.73 C 472.63 222.57 470.82 224.05 469.67 225.27 C 468.52 226.50 467.18 228.40 466.41 229.90 C 465.65 231.40 464.94 233.60 464.58 235.25 C 464.22 236.90 464.12 239.20 464.03 240.89 C 463.95 242.59 464.00 244.87 464.00 246.57 C 464.00 248.27 464.00 250.54 464.00 252.25 C 464.00 253.95 464.00 256.22 464.00 257.92 C 464.00 259.62 464.00 261.89 464.00 263.60 C 464.00 265.30 464.00 267.57 464.00 269.27 C 464.00 270.98 464.00 273.25 464.00 274.95 C 464.00 276.65 464.00 278.92 464.00 280.62 C 464.00 282.33 464.00 284.60 464.00 286.30 C 464.00 288.00 464.00 290.27 464.00 291.98 C 464.00 293.68 464.00 295.95 464.00 297.65 C 464.00 299.35 464.00 301.62 464.00 303.33 C 464.00 305.03 464.00 307.30 464.00 309.00 C 464.00 310.71 464.00 312.98 464.00 314.68 C 464.00 316.38 464.00 318.65 464.00 320.35 C 464.00 322.06 464.00 324.33 464.00 326.03 C 464.00 327.73 464.00 330.00 464.00 331.71 C 464.00 333.41 464.00 335.68 464.00 337.38 C 464.00 339.08 464.00 341.35 464.00 343.06 C 464.00 344.76 464.00 347.03 464.00 348.73 C 464.00 350.44 464.00 352.71 464.00 354.41 C 464.00 356.11 464.00 358.38 464.00 360.08 C 464.00 361.79 464.09 364.07 463.99 365.76 C 463.90 367.45 464.04 369.93 463.38 371.38 C 462.72 372.82 460.92 374.42 459.59 375.40 C 458.25 376.38 455.95 377.05 454.50 377.92 C 453.05 378.80 451.14 380.09 449.92 381.25 C 448.70 382.41 447.29 384.24 446.38 385.66 C 445.47 387.09 444.32 389.16 443.88 390.75 C 443.43 392.34 442.77 395.05 443.42 396.27 C 444.06 397.49 446.63 398.39 448.20 398.88 C 449.76 399.38 452.13 399.43 453.83 399.55 C 455.53 399.67 457.80 399.65 459.50 399.67 C 461.21 399.68 463.48 399.67 465.18 399.67 C 466.88 399.67 469.15 399.67 470.85 399.67 C 472.56 399.67 474.83 399.67 476.53 399.67 C 478.23 399.67 480.50 399.67 482.21 399.67 C 483.91 399.67 486.18 399.67 487.88 399.67 C 489.58 399.67 491.85 399.67 493.56 399.67 C 495.26 399.67 497.53 399.67 499.23 399.67 C 500.94 399.67 503.21 399.67 504.91 399.67 C 506.61 399.67 508.88 399.67 510.58 399.67 C 512.29 399.67 514.56 399.67 516.26 399.67 C 517.96 399.67 520.23 399.67 521.94 399.67 C 523.64 399.67 525.91 399.67 527.61 399.67 C 529.31 399.67 531.59 399.67 533.29 399.67 C 534.99 399.67 537.26 399.67 538.96 399.67 C 540.67 399.67 542.94 399.67 544.64 399.67 C 546.34 399.67 548.61 399.67 550.32 399.67 C 552.02 399.67 554.29 399.67 555.99 399.67 C 557.69 399.67 559.96 399.67 561.67 399.67 C 563.37 399.67 565.64 399.68 567.34 399.67 C 569.04 399.65 571.33 399.72 573.02 399.57 C 574.70 399.42 577.45 399.53 578.60 398.69 C 579.75 397.84 580.65 395.45 580.69 393.94 C 580.73 392.42 579.59 390.11 578.88 388.58 C 578.17 387.05 576.99 385.06 575.96 383.72 C 574.92 382.39 573.29 380.76 571.98 379.70 C 570.67 378.64 568.64 377.56 567.20 376.66 C 565.76 375.75 563.47 374.88 562.38 373.69 C 561.28 372.50 560.30 370.32 559.89 368.72 C 559.48 367.13 559.70 364.76 559.67 363.06 C 559.63 361.36 559.67 359.08 559.67 357.38 C 559.67 355.68 559.67 353.41 559.67 351.71 C 559.67 350.00 559.67 347.73 559.67 346.03 C 559.67 344.33 559.67 342.06 559.67 340.35 C 559.67 338.65 559.67 336.38 559.67 334.68 C 559.67 332.98 559.67 330.70 559.67 329.00 C 559.67 327.30 559.67 325.03 559.67 323.33 C 559.67 321.62 559.67 319.35 559.67 317.65 C 559.67 315.95 559.67 313.68 559.67 311.97 C 559.67 310.27 559.67 308.00 559.67 306.30 C 559.67 304.60 559.67 302.33 559.67 300.62 C 559.67 298.92 559.67 296.65 559.67 294.95 C 559.67 293.24 559.67 290.97 559.67 289.27 C 559.67 287.57 559.67 285.30 559.67 283.60 C 559.67 281.89 559.67 279.62 559.67 277.92 C 559.67 276.22 559.67 273.95 559.67 272.24 C 559.67 270.54 559.67 268.27 559.67 266.57 C 559.67 264.87 559.67 262.60 559.67 260.89 C 559.67 259.19 559.67 256.92 559.67 255.22 C 559.67 253.51 559.67 251.24 559.67 249.54 C 559.67 247.84 559.69 245.57 559.67 243.87 C 559.64 242.16 559.68 239.88 559.48 238.19 C 559.28 236.51 558.87 234.25 558.33 232.65 C 557.79 231.05 556.83 228.94 555.89 227.55 C 554.95 226.16 553.36 224.45 552.06 223.39 C 550.75 222.33 548.76 221.10 547.21 220.46 C 545.66 219.83 543.39 219.36 541.72 219.14 C 540.04 218.92 537.75 219.02 536.05 219.00 C 534.34 218.98 532.07 219.00 530.37 219.00 C 528.67 219.00 526.40 219.00 524.70 219.00 C 522.99 219.00 520.72 219.00 519.02 219.00 C 517.32 219.00 515.05 219.00 513.34 219.00 C 511.64 219.00 509.37 219.00 507.67 219.00 C 505.96 219.00 503.69 219.00 501.99 219.00 C 500.29 219.00 498.02 219.00 496.32 219.00 C 494.61 219.00 492.34 219.00 490.64 219.00 C 488.94 219.00 486.66 218.93 484.96 219.03 C 483.27 219.13 480.97 219.24 479.33 219.65 Z" fill="url(#g)" fill-rule="evenodd"/>
  <path d="M 442.33 248.46 C 440.71 248.52 438.54 248.97 436.91 249.21 C 435.29 249.45 433.13 249.79 431.51 250.06 C 429.89 250.34 427.74 250.74 426.13 251.04 C 424.51 251.33 422.36 251.71 420.75 252.03 C 419.13 252.34 416.99 252.77 415.38 253.11 C 413.78 253.45 411.64 253.92 410.04 254.28 C 408.44 254.65 406.31 255.15 404.72 255.53 C 403.12 255.92 401.00 256.46 399.41 256.86 C 397.82 257.25 395.69 257.78 394.10 258.18 C 392.51 258.58 390.38 259.10 388.80 259.52 C 387.21 259.94 385.10 260.52 383.53 260.99 C 381.96 261.46 379.88 262.16 378.32 262.67 C 376.76 263.18 374.69 263.89 373.13 264.39 C 371.56 264.88 369.46 265.49 367.90 265.99 C 366.33 266.49 364.25 267.15 362.70 267.69 C 361.15 268.24 359.11 269.02 357.57 269.60 C 356.04 270.18 353.99 270.96 352.46 271.55 C 350.94 272.15 348.90 272.97 347.39 273.59 C 345.87 274.22 343.85 275.07 342.34 275.71 C 340.83 276.35 338.82 277.21 337.32 277.87 C 335.82 278.53 333.82 279.43 332.34 280.14 C 330.86 280.84 328.91 281.84 327.44 282.57 C 325.97 283.31 324.01 284.27 322.55 285.02 C 321.09 285.78 319.16 286.80 317.71 287.58 C 316.27 288.36 314.36 289.43 312.93 290.23 C 311.49 291.02 309.57 292.07 308.15 292.89 C 306.72 293.70 304.83 294.80 303.42 295.65 C 302.02 296.49 300.17 297.67 298.78 298.53 C 297.39 299.40 295.53 300.56 294.14 301.44 C 292.76 302.32 290.91 303.50 289.55 304.42 C 288.19 305.33 286.41 306.61 285.08 307.57 C 283.75 308.52 281.98 309.81 280.66 310.79 C 279.35 311.78 277.61 313.10 276.33 314.13 C 275.05 315.16 273.37 316.57 272.13 317.64 C 270.89 318.71 269.26 320.18 268.04 321.27 C 266.81 322.36 265.17 323.81 263.95 324.90 C 262.73 325.99 261.09 327.44 259.89 328.57 C 258.69 329.69 257.13 331.22 255.96 332.38 C 254.80 333.53 253.25 335.08 252.10 336.25 C 250.96 337.43 249.44 339.00 248.34 340.22 C 247.23 341.43 245.81 343.09 244.75 344.35 C 243.69 345.60 242.31 347.30 241.28 348.58 C 240.26 349.86 238.91 351.59 237.91 352.89 C 236.91 354.19 235.57 355.92 234.61 357.25 C 233.64 358.58 232.42 360.39 231.49 361.74 C 230.55 363.09 229.31 364.89 228.39 366.25 C 227.47 367.61 226.27 369.44 225.35 370.80 C 224.43 372.16 223.13 373.92 222.26 375.31 C 221.40 376.71 220.33 378.62 219.59 380.08 C 218.85 381.54 218.01 383.57 217.32 385.05 C 216.62 386.54 215.65 388.50 214.96 389.99 C 214.27 391.48 213.37 393.48 212.71 394.98 C 212.05 396.48 211.19 398.49 210.55 400.00 C 209.91 401.51 209.08 403.54 208.45 405.05 C 207.81 406.56 206.88 408.55 206.30 410.08 C 205.71 411.61 205.02 413.69 204.53 415.26 C 204.04 416.82 203.47 418.94 203.02 420.51 C 202.56 422.09 201.89 424.18 201.51 425.77 C 201.14 427.37 200.85 429.54 200.52 431.15 C 200.20 432.76 199.70 434.89 199.34 436.49 C 198.98 438.09 198.46 440.22 198.12 441.83 C 197.79 443.43 197.39 445.58 197.11 447.20 C 196.84 448.82 196.46 450.98 196.31 452.61 C 196.15 454.24 195.89 456.48 196.08 458.07 C 196.27 459.66 196.63 462.16 197.59 463.23 C 198.55 464.31 200.93 465.05 202.47 465.22 C 204.01 465.38 206.24 464.57 207.86 464.35 C 209.48 464.12 211.65 463.84 213.29 463.72 C 214.92 463.60 217.12 463.60 218.76 463.55 C 220.40 463.50 222.62 463.60 224.22 463.38 C 225.83 463.16 228.18 462.91 229.46 462.07 C 230.74 461.24 232.11 459.27 232.76 457.82 C 233.41 456.38 233.50 454.08 233.78 452.47 C 234.06 450.85 234.32 448.68 234.63 447.07 C 234.94 445.46 235.41 443.31 235.85 441.73 C 236.29 440.15 236.92 438.05 237.54 436.54 C 238.16 435.02 239.25 433.11 239.99 431.65 C 240.73 430.18 241.76 428.25 242.47 426.77 C 243.17 425.29 243.99 423.26 244.70 421.78 C 245.41 420.30 246.39 418.34 247.21 416.92 C 248.02 415.50 249.20 413.64 250.14 412.30 C 251.08 410.96 252.45 409.25 253.47 407.97 C 254.50 406.69 255.93 405.03 257.00 403.78 C 258.07 402.54 259.49 400.88 260.61 399.67 C 261.72 398.47 263.26 396.91 264.44 395.77 C 265.62 394.63 267.27 393.19 268.47 392.08 C 269.68 390.96 271.29 389.48 272.50 388.37 C 273.70 387.25 275.28 385.74 276.50 384.64 C 277.73 383.55 279.37 382.11 280.65 381.08 C 281.93 380.05 283.68 378.74 285.01 377.77 C 286.33 376.81 288.13 375.56 289.49 374.63 C 290.84 373.70 292.66 372.49 294.03 371.58 C 295.40 370.68 297.22 369.47 298.61 368.59 C 300.00 367.72 301.86 366.57 303.27 365.73 C 304.68 364.89 306.58 363.81 308.01 363.00 C 309.43 362.18 311.34 361.10 312.77 360.31 C 314.21 359.51 316.13 358.47 317.59 357.71 C 319.04 356.95 321.00 355.97 322.46 355.23 C 323.93 354.49 325.88 353.50 327.35 352.78 C 328.83 352.06 330.80 351.11 332.29 350.43 C 333.79 349.75 335.80 348.90 337.31 348.25 C 338.82 347.60 340.83 346.74 342.34 346.10 C 343.86 345.47 345.88 344.65 347.41 344.04 C 348.93 343.43 350.97 342.62 352.50 342.05 C 354.04 341.48 356.11 340.76 357.66 340.23 C 359.21 339.69 361.29 339.01 362.85 338.48 C 364.40 337.94 366.45 337.19 368.01 336.67 C 369.56 336.14 371.65 335.47 373.21 334.98 C 374.78 334.49 376.87 333.85 378.44 333.37 C 380.01 332.90 382.11 332.29 383.69 331.82 C 385.26 331.35 387.34 330.68 388.92 330.24 C 390.51 329.81 392.63 329.30 394.23 328.91 C 395.82 328.53 397.97 328.08 399.56 327.68 C 401.15 327.29 403.26 326.69 404.85 326.30 C 406.44 325.90 408.58 325.41 410.18 325.04 C 411.77 324.68 413.91 324.19 415.51 323.85 C 417.12 323.51 419.26 323.08 420.88 322.76 C 422.49 322.45 424.64 322.06 426.25 321.77 C 427.87 321.47 430.02 321.08 431.64 320.80 C 433.25 320.51 435.41 320.12 437.03 319.86 C 438.65 319.61 440.83 319.39 442.44 319.09 C 444.05 318.79 446.55 318.72 447.75 317.87 C 448.96 317.02 450.04 314.90 450.48 313.41 C 450.92 311.93 450.64 309.59 450.67 307.95 C 450.69 306.31 450.67 304.12 450.67 302.48 C 450.67 300.84 450.67 298.65 450.67 297.01 C 450.67 295.37 450.67 293.18 450.67 291.54 C 450.67 289.90 450.67 287.71 450.67 286.07 C 450.67 284.43 450.67 282.24 450.67 280.60 C 450.67 278.96 450.67 276.77 450.67 275.13 C 450.67 273.49 450.67 271.30 450.67 269.66 C 450.67 268.02 450.67 265.83 450.67 264.19 C 450.67 262.55 450.69 260.36 450.67 258.72 C 450.64 257.08 450.92 254.74 450.48 253.25 C 450.04 251.77 448.95 249.55 447.73 248.83 C 446.50 248.12 443.95 248.41 442.33 248.46 Z" fill="url(#g)" fill-rule="evenodd"/>
  <path d="M 575.09 249.34 C 573.99 250.21 573.40 252.70 573.09 254.26 C 572.78 255.82 573.01 258.10 573.00 259.74 C 572.99 261.39 573.00 263.58 573.00 265.22 C 573.00 266.87 573.00 269.06 573.00 270.71 C 573.00 272.35 573.00 274.55 573.00 276.19 C 573.00 277.84 573.00 280.03 573.00 281.68 C 573.00 283.32 573.00 285.52 573.00 287.16 C 573.00 288.81 573.00 291.00 573.00 292.65 C 573.00 294.29 573.00 296.49 573.00 298.13 C 573.00 299.78 573.00 301.97 573.00 303.61 C 573.00 305.26 572.94 307.46 573.00 309.10 C 573.06 310.74 572.80 313.18 573.40 314.56 C 574.00 315.94 575.66 317.60 577.01 318.30 C 578.36 319.01 580.78 318.99 582.40 319.25 C 584.03 319.51 586.20 319.78 587.83 320.03 C 589.46 320.28 591.62 320.63 593.24 320.91 C 594.86 321.20 597.02 321.61 598.64 321.91 C 600.25 322.21 602.42 322.58 604.03 322.90 C 605.65 323.21 607.79 323.68 609.40 324.02 C 611.01 324.37 613.15 324.84 614.75 325.20 C 616.36 325.56 618.50 326.03 620.10 326.41 C 621.71 326.79 623.84 327.30 625.43 327.72 C 627.02 328.14 629.12 328.76 630.71 329.20 C 632.29 329.65 634.40 330.25 635.99 330.68 C 637.58 331.10 639.72 331.61 641.30 332.04 C 642.89 332.47 645.01 333.04 646.58 333.53 C 648.15 334.02 650.22 334.76 651.77 335.30 C 653.33 335.83 655.40 336.57 656.95 337.09 C 658.51 337.62 660.60 338.30 662.16 338.82 C 663.72 339.35 665.79 340.06 667.34 340.62 C 668.89 341.18 670.94 341.95 672.47 342.55 C 674.01 343.14 676.05 343.95 677.57 344.57 C 679.10 345.18 681.13 346.02 682.64 346.66 C 684.16 347.30 686.17 348.17 687.68 348.82 C 689.20 349.46 691.22 350.32 692.72 350.98 C 694.23 351.64 696.25 352.51 697.74 353.20 C 699.23 353.89 701.20 354.86 702.68 355.59 C 704.15 356.32 706.11 357.30 707.57 358.07 C 709.02 358.84 710.94 359.89 712.38 360.70 C 713.81 361.50 715.72 362.59 717.13 363.44 C 718.54 364.28 720.40 365.45 721.79 366.32 C 723.19 367.20 725.03 368.39 726.41 369.28 C 727.80 370.16 729.67 371.31 731.05 372.20 C 732.44 373.09 734.27 374.30 735.63 375.23 C 736.98 376.16 738.77 377.43 740.09 378.42 C 741.40 379.41 743.11 380.79 744.39 381.82 C 745.67 382.85 747.36 384.25 748.64 385.29 C 749.91 386.33 751.63 387.70 752.88 388.77 C 754.13 389.84 755.78 391.29 756.97 392.42 C 758.16 393.55 759.70 395.12 760.83 396.31 C 761.96 397.51 763.40 399.16 764.49 400.40 C 765.58 401.63 767.03 403.27 768.10 404.53 C 769.16 405.78 770.59 407.45 771.60 408.75 C 772.60 410.05 773.88 411.84 774.79 413.21 C 775.70 414.57 776.86 416.44 777.68 417.87 C 778.49 419.29 779.47 421.26 780.22 422.73 C 780.97 424.19 781.93 426.16 782.67 427.63 C 783.40 429.10 784.47 431.02 785.14 432.53 C 785.80 434.03 786.55 436.10 787.09 437.65 C 787.62 439.21 788.27 441.30 788.69 442.89 C 789.11 444.48 789.57 446.63 789.88 448.25 C 790.19 449.86 790.42 452.05 790.73 453.66 C 791.04 455.27 791.14 457.70 791.94 458.99 C 792.75 460.28 794.64 461.72 796.08 462.27 C 797.52 462.82 799.90 462.60 801.54 462.66 C 803.18 462.72 805.38 462.64 807.02 462.67 C 808.67 462.69 810.86 462.72 812.50 462.83 C 814.14 462.94 816.33 463.37 817.96 463.39 C 819.59 463.42 822.12 463.68 823.38 462.97 C 824.63 462.26 825.91 460.14 826.34 458.68 C 826.76 457.21 826.34 454.85 826.18 453.21 C 826.03 451.58 825.59 449.42 825.33 447.80 C 825.06 446.17 824.70 444.01 824.41 442.39 C 824.12 440.77 823.72 438.61 823.40 437.00 C 823.08 435.39 822.65 433.23 822.29 431.63 C 821.93 430.02 821.42 427.89 821.02 426.29 C 820.61 424.70 820.02 422.59 819.57 421.00 C 819.13 419.42 818.53 417.31 818.05 415.74 C 817.57 414.16 816.90 412.07 816.37 410.52 C 815.83 408.96 815.06 406.91 814.47 405.37 C 813.88 403.84 813.05 401.80 812.44 400.27 C 811.83 398.75 811.03 396.70 810.40 395.19 C 809.77 393.67 808.92 391.64 808.24 390.15 C 807.55 388.65 806.59 386.68 805.85 385.21 C 805.11 383.74 804.11 381.78 803.33 380.34 C 802.54 378.90 801.44 377.00 800.61 375.58 C 799.77 374.16 798.64 372.28 797.78 370.88 C 796.92 369.47 795.77 367.61 794.88 366.22 C 793.99 364.84 792.77 363.01 791.84 361.66 C 790.91 360.30 789.63 358.52 788.66 357.19 C 787.69 355.87 786.36 354.11 785.35 352.82 C 784.34 351.52 782.96 349.81 781.91 348.54 C 780.87 347.28 779.44 345.60 778.37 344.36 C 777.30 343.11 775.84 341.47 774.76 340.23 C 773.67 338.99 772.24 337.33 771.14 336.11 C 770.03 334.89 768.54 333.28 767.39 332.11 C 766.23 330.94 764.64 329.43 763.43 328.32 C 762.22 327.20 760.56 325.77 759.32 324.68 C 758.09 323.60 756.44 322.14 755.20 321.07 C 753.95 319.99 752.29 318.56 751.03 317.51 C 749.76 316.45 748.06 315.07 746.78 314.04 C 745.49 313.01 743.76 311.67 742.46 310.66 C 741.15 309.66 739.42 308.31 738.10 307.33 C 736.78 306.35 735.00 305.07 733.65 304.13 C 732.30 303.19 730.47 301.97 729.09 301.08 C 727.71 300.18 725.85 299.02 724.45 298.16 C 723.05 297.30 721.15 296.20 719.74 295.35 C 718.33 294.51 716.46 293.35 715.04 292.52 C 713.62 291.68 711.73 290.58 710.29 289.78 C 708.85 288.98 706.91 287.97 705.46 287.18 C 704.02 286.40 702.11 285.30 700.66 284.54 C 699.20 283.78 697.22 282.82 695.74 282.11 C 694.25 281.40 692.25 280.50 690.75 279.82 C 689.25 279.15 687.25 278.26 685.74 277.61 C 684.23 276.95 682.21 276.09 680.70 275.44 C 679.19 274.79 677.17 273.92 675.66 273.28 C 674.14 272.65 672.12 271.79 670.59 271.19 C 669.06 270.58 667.00 269.81 665.46 269.24 C 663.92 268.66 661.87 267.90 660.31 267.35 C 658.76 266.81 656.68 266.11 655.11 265.61 C 653.55 265.11 651.44 264.49 649.87 264.01 C 648.29 263.53 646.19 262.90 644.62 262.41 C 643.05 261.93 640.97 261.24 639.39 260.76 C 637.82 260.28 635.71 259.67 634.12 259.24 C 632.54 258.81 630.41 258.28 628.81 257.87 C 627.22 257.47 625.09 256.93 623.49 256.54 C 621.89 256.16 619.75 255.66 618.15 255.30 C 616.55 254.93 614.41 254.45 612.80 254.11 C 611.19 253.77 609.04 253.34 607.42 253.02 C 605.81 252.69 603.66 252.26 602.04 251.95 C 600.43 251.64 598.27 251.25 596.65 250.97 C 595.03 250.69 592.86 250.33 591.24 250.07 C 589.61 249.80 587.45 249.45 585.82 249.22 C 584.19 248.98 581.99 248.47 580.38 248.49 C 578.77 248.51 576.18 248.48 575.09 249.34 Z" fill="url(#g)" fill-rule="evenodd"/>
  <path d="M 350.33 403.42 C 346.28 403.77 341.58 404.42 337.60 405.21 C 333.61 406.00 329.07 407.32 325.14 408.40 C 321.22 409.49 316.62 410.65 312.81 412.06 C 309.01 413.47 304.71 415.46 301.11 417.33 C 297.50 419.19 293.50 421.72 290.03 423.86 C 286.56 425.99 282.54 428.47 279.20 430.80 C 275.86 433.13 271.97 435.88 268.94 438.56 C 265.90 441.24 262.71 444.68 260.03 447.73 C 257.35 450.77 254.57 454.61 252.02 457.79 C 249.48 460.97 246.21 464.44 243.96 467.81 C 241.70 471.17 239.60 475.42 237.76 479.04 C 235.91 482.65 233.97 486.94 232.28 490.63 C 230.58 494.32 228.19 498.50 227.03 502.36 C 225.87 506.22 225.81 511.04 224.95 515.01 C 224.09 518.98 222.40 523.44 221.59 527.43 C 220.79 531.41 220.26 536.12 219.85 540.16 C 219.44 544.21 219.06 548.92 219.00 552.98 C 218.94 557.04 219.13 561.77 219.50 565.82 C 219.88 569.86 220.57 574.56 221.36 578.55 C 222.14 582.53 223.32 587.10 224.44 591.01 C 225.57 594.91 227.13 599.36 228.47 603.20 C 229.81 607.04 231.23 611.55 232.91 615.24 C 234.58 618.94 237.05 623.00 239.04 626.55 C 241.04 630.09 243.26 634.27 245.50 637.66 C 247.74 641.05 250.63 644.81 253.18 647.98 C 255.73 651.16 258.72 654.83 261.59 657.71 C 264.46 660.59 268.23 663.48 271.30 666.15 C 274.37 668.82 277.72 672.18 280.99 674.59 C 284.26 677.00 288.41 679.30 291.93 681.35 C 295.45 683.41 299.52 685.83 303.20 687.56 C 306.88 689.28 311.31 690.91 315.16 692.24 C 319.00 693.58 323.53 694.96 327.46 695.99 C 331.40 697.03 336.00 698.07 340.01 698.75 C 344.02 699.44 348.72 700.04 352.77 700.34 C 356.83 700.65 361.55 700.62 365.63 700.67 C 369.70 700.72 374.45 700.99 378.49 700.65 C 382.54 700.32 387.19 699.45 391.16 698.56 C 395.12 697.67 399.64 696.20 403.53 695.04 C 407.43 693.87 412.02 692.77 415.75 691.20 C 419.48 689.64 423.47 687.00 427.10 685.15 C 430.73 683.31 435.23 681.67 438.67 679.55 C 442.11 677.43 445.65 674.31 448.80 671.76 C 451.96 669.21 455.62 666.19 458.61 663.44 C 461.60 660.68 464.87 657.28 467.69 654.35 C 470.51 651.41 473.65 647.89 476.44 644.92 C 479.23 641.96 482.56 638.61 485.32 635.61 C 488.08 632.62 492.87 629.24 493.89 626.02 C 494.92 622.80 493.37 618.57 491.79 615.27 C 490.21 611.97 486.95 607.37 483.91 605.17 C 480.87 602.97 475.76 600.50 472.58 601.38 C 469.41 602.26 466.64 607.76 463.85 610.71 C 461.07 613.66 457.90 617.17 454.98 620.00 C 452.06 622.84 448.27 625.71 445.44 628.62 C 442.60 631.54 439.96 635.56 437.07 638.38 C 434.17 641.21 430.51 644.23 427.14 646.47 C 423.77 648.70 419.35 650.51 415.79 652.47 C 412.22 654.43 408.34 657.24 404.63 658.83 C 400.92 660.42 396.29 661.52 392.35 662.50 C 388.41 663.48 383.75 664.30 379.75 665.01 C 375.74 665.72 371.10 666.75 367.05 666.97 C 363.01 667.20 358.21 667.02 354.21 666.43 C 350.21 665.85 345.72 664.28 341.79 663.27 C 337.87 662.26 333.28 661.26 329.41 660.03 C 325.55 658.80 321.06 657.21 317.39 655.49 C 313.72 653.76 309.62 651.36 306.21 649.14 C 302.81 646.93 299.03 644.08 295.89 641.50 C 292.75 638.92 289.21 635.75 286.37 632.85 C 283.53 629.94 280.49 626.31 277.95 623.12 C 275.42 619.94 272.49 616.19 270.38 612.73 C 268.27 609.27 266.19 605.00 264.62 601.26 C 263.06 597.51 261.76 592.95 260.48 589.08 C 259.20 585.22 257.59 580.77 256.53 576.85 C 255.46 572.92 254.20 568.33 253.75 564.31 C 253.30 560.29 253.62 555.51 253.67 551.44 C 253.71 547.37 253.52 542.60 254.05 538.60 C 254.59 534.59 256.12 530.11 257.05 526.16 C 257.97 522.20 258.70 517.50 259.87 513.62 C 261.04 509.75 262.82 505.39 264.44 501.67 C 266.05 497.95 268.06 493.65 270.07 490.12 C 272.08 486.59 274.67 482.61 277.13 479.38 C 279.58 476.14 282.70 472.55 285.58 469.69 C 288.46 466.83 292.22 463.96 295.30 461.31 C 298.39 458.65 301.74 455.27 305.06 452.94 C 308.38 450.62 312.60 448.39 316.27 446.64 C 319.94 444.89 324.38 443.27 328.21 441.91 C 332.05 440.54 336.52 438.95 340.47 438.01 C 344.42 437.07 349.11 436.34 353.16 435.97 C 357.20 435.60 361.95 435.57 366.01 435.67 C 370.07 435.76 374.80 436.03 378.82 436.57 C 382.85 437.10 387.49 438.01 391.42 439.04 C 395.35 440.06 399.84 441.59 403.64 443.04 C 407.44 444.49 411.82 446.32 415.42 448.20 C 419.02 450.08 423.05 452.59 426.39 454.91 C 429.73 457.22 433.42 460.20 436.52 462.83 C 439.62 465.46 443.11 468.65 445.99 471.53 C 448.86 474.40 451.95 477.99 454.69 481.00 C 457.42 484.02 460.53 487.57 463.28 490.58 C 466.02 493.59 469.22 497.05 472.01 500.02 C 474.80 502.99 478.13 506.34 480.90 509.32 C 483.67 512.30 486.75 515.87 489.53 518.86 C 492.30 521.84 495.62 525.19 498.42 528.15 C 501.22 531.11 504.45 534.55 507.20 537.55 C 509.95 540.55 513.03 544.12 515.81 547.10 C 518.59 550.08 521.95 553.40 524.74 556.36 C 527.54 559.32 530.72 562.81 533.47 565.80 C 536.23 568.80 539.34 572.34 542.14 575.30 C 544.94 578.27 548.34 581.54 551.13 584.51 C 553.92 587.48 557.00 591.05 559.74 594.06 C 562.49 597.07 565.66 600.56 568.45 603.53 C 571.24 606.49 574.61 609.80 577.39 612.78 C 580.17 615.75 583.13 619.45 586.01 622.33 C 588.88 625.21 592.42 628.34 595.53 630.97 C 598.64 633.59 602.31 636.59 605.65 638.89 C 609.00 641.19 613.01 643.73 616.66 645.51 C 620.30 647.28 624.81 648.83 628.67 650.11 C 632.53 651.39 637.06 652.76 641.04 653.60 C 645.01 654.45 649.72 655.19 653.77 655.44 C 657.81 655.69 662.56 655.55 666.60 655.20 C 670.64 654.86 675.34 654.12 679.31 653.25 C 683.28 652.38 687.86 651.13 691.67 649.73 C 695.48 648.32 699.76 646.26 703.37 644.40 C 706.98 642.54 711.11 640.22 714.49 637.97 C 717.87 635.71 721.66 632.85 724.71 630.16 C 727.75 627.47 731.05 624.05 733.70 620.97 C 736.34 617.88 739.17 614.07 741.39 610.67 C 743.61 607.27 745.90 603.11 747.72 599.47 C 749.53 595.83 751.52 591.51 752.85 587.67 C 754.17 583.84 755.21 579.21 756.09 575.24 C 756.96 571.26 757.94 566.61 758.35 562.57 C 758.76 558.53 758.75 553.79 758.67 549.72 C 758.59 545.66 758.38 540.93 757.84 536.91 C 757.31 532.89 756.31 528.24 755.28 524.31 C 754.26 520.37 752.84 515.85 751.36 512.07 C 749.88 508.28 747.86 503.99 745.93 500.41 C 744.00 496.83 741.53 492.78 739.18 489.47 C 736.82 486.16 733.82 482.49 731.07 479.50 C 728.32 476.51 724.92 473.19 721.81 470.58 C 718.69 467.98 714.82 465.24 711.40 463.05 C 707.98 460.85 703.88 458.45 700.22 456.70 C 696.56 454.95 692.12 453.27 688.26 452.00 C 684.40 450.74 679.82 449.49 675.83 448.71 C 671.84 447.93 667.12 447.22 663.07 447.07 C 659.03 446.92 654.29 447.30 650.26 447.74 C 646.22 448.18 641.51 448.88 637.57 449.84 C 633.62 450.80 629.12 452.33 625.34 453.81 C 621.55 455.28 617.21 457.21 613.64 459.15 C 610.07 461.08 606.08 463.66 602.78 466.04 C 599.49 468.42 595.82 471.42 592.83 474.17 C 589.84 476.92 586.74 480.49 583.89 483.41 C 581.05 486.32 577.65 489.60 574.86 492.57 C 572.08 495.54 568.92 499.07 566.31 502.18 C 563.69 505.29 558.55 508.99 558.35 512.22 C 558.15 515.44 562.60 519.44 565.05 522.57 C 567.49 525.70 570.76 530.94 573.78 532.00 C 576.81 533.06 581.10 531.17 584.15 529.26 C 587.20 527.36 590.26 522.94 593.03 519.96 C 595.81 516.98 598.86 513.38 601.66 510.43 C 604.46 507.47 607.79 504.11 610.72 501.28 C 613.64 498.45 616.91 494.97 620.15 492.56 C 623.40 490.14 627.54 487.72 631.22 486.03 C 634.89 484.34 639.43 482.86 643.36 481.87 C 647.29 480.88 652.01 479.99 656.05 479.77 C 660.08 479.56 664.85 479.91 668.85 480.51 C 672.86 481.10 677.55 482.15 681.34 483.53 C 685.14 484.91 689.36 487.15 692.84 489.24 C 696.31 491.32 700.23 494.04 703.28 496.70 C 706.33 499.36 709.61 502.85 712.10 506.04 C 714.59 509.24 717.15 513.28 718.99 516.89 C 720.83 520.50 722.51 524.95 723.71 528.83 C 724.91 532.71 726.05 537.35 726.57 541.37 C 727.09 545.39 727.15 550.16 727.00 554.21 C 726.85 558.27 726.39 563.00 725.62 566.98 C 724.85 570.96 723.59 575.56 722.13 579.34 C 720.66 583.12 718.48 587.38 716.37 590.84 C 714.26 594.31 711.50 598.22 708.80 601.23 C 706.09 604.24 702.56 607.46 699.30 609.87 C 696.05 612.28 691.91 614.69 688.26 616.44 C 684.61 618.19 680.14 619.86 676.23 620.90 C 672.32 621.93 667.60 622.69 663.56 622.98 C 659.52 623.28 654.71 623.29 650.70 622.76 C 646.70 622.23 642.07 620.97 638.25 619.64 C 634.42 618.31 630.06 616.36 626.55 614.35 C 623.04 612.33 619.18 609.54 616.10 606.92 C 613.01 604.30 609.92 600.68 607.06 597.78 C 604.20 594.88 600.82 591.58 598.02 588.62 C 595.23 585.66 592.20 582.04 589.40 579.08 C 586.61 576.12 583.17 572.88 580.37 569.92 C 577.57 566.96 574.48 563.39 571.72 560.39 C 568.97 557.40 565.75 553.95 562.95 550.99 C 560.16 548.03 556.85 544.67 554.08 541.68 C 551.31 538.69 548.19 535.15 545.46 532.13 C 542.73 529.11 539.59 525.59 536.83 522.60 C 534.06 519.60 530.80 516.20 528.01 513.23 C 525.22 510.27 521.97 506.85 519.21 503.85 C 516.45 500.86 513.35 497.30 510.60 494.30 C 507.85 491.29 504.63 487.84 501.85 484.87 C 499.06 481.90 495.78 478.51 493.01 475.53 C 490.24 472.54 487.11 469.02 484.35 466.02 C 481.59 463.02 478.41 459.55 475.61 456.59 C 472.81 453.63 469.55 450.22 466.67 447.34 C 463.79 444.45 460.50 441.05 457.44 438.38 C 454.37 435.71 450.61 432.82 447.30 430.45 C 443.99 428.09 440.01 425.53 436.52 423.44 C 433.03 421.34 428.92 419.02 425.27 417.22 C 421.63 415.42 417.30 413.52 413.50 412.06 C 409.70 410.60 405.20 409.12 401.29 408.02 C 397.37 406.92 392.76 405.85 388.76 405.09 C 384.76 404.33 380.09 403.57 376.03 403.24 C 371.98 402.91 367.25 402.97 363.18 403.00 C 359.11 403.03 354.38 403.07 350.33 403.42 Z" fill="url(#g)" fill-rule="evenodd"/>
  <path d="M 646.33 403.42 C 642.29 403.79 637.61 404.55 633.62 405.34 C 629.64 406.13 625.05 407.27 621.14 408.40 C 617.24 409.53 612.73 410.99 608.95 412.48 C 605.16 413.96 600.88 415.96 597.25 417.79 C 593.62 419.63 589.47 421.89 586.03 424.06 C 582.58 426.22 578.74 428.97 575.51 431.45 C 572.28 433.92 568.70 437.00 565.62 439.66 C 562.55 442.32 558.96 445.40 556.07 448.27 C 553.19 451.14 550.20 454.80 547.43 457.78 C 544.65 460.76 541.33 464.11 538.56 467.09 C 535.78 470.07 530.88 473.35 529.90 476.60 C 528.91 479.85 530.52 484.42 532.34 487.60 C 534.16 490.79 538.29 494.80 541.40 496.73 C 544.51 498.66 548.91 500.81 551.96 499.79 C 555.01 498.78 557.89 493.31 560.67 490.34 C 563.45 487.36 566.72 483.97 569.52 481.01 C 572.31 478.06 575.49 474.58 578.34 471.66 C 581.18 468.75 584.42 465.29 587.48 462.62 C 590.54 459.94 594.32 457.09 597.66 454.79 C 601.01 452.48 605.02 449.96 608.62 448.07 C 612.21 446.18 616.58 444.33 620.37 442.86 C 624.16 441.38 628.63 439.80 632.55 438.76 C 636.48 437.72 641.14 436.77 645.17 436.28 C 649.20 435.79 653.92 435.74 657.99 435.67 C 662.06 435.59 666.82 435.37 670.85 435.79 C 674.88 436.21 679.49 437.36 683.45 438.32 C 687.40 439.28 691.97 440.51 695.81 441.83 C 699.66 443.15 704.07 444.88 707.73 446.64 C 711.39 448.40 715.53 450.73 718.93 452.95 C 722.33 455.17 726.09 458.07 729.22 460.66 C 732.35 463.25 735.90 466.38 738.70 469.32 C 741.50 472.26 744.45 475.98 746.91 479.22 C 749.36 482.46 752.12 486.31 754.22 489.79 C 756.32 493.27 758.49 497.49 760.16 501.20 C 761.83 504.90 763.51 509.33 764.77 513.19 C 766.02 517.06 767.19 521.65 768.06 525.62 C 768.93 529.59 769.80 534.25 770.26 538.28 C 770.73 542.32 770.96 547.04 771.00 551.10 C 771.04 555.16 770.90 559.89 770.48 563.93 C 770.06 567.97 769.22 572.64 768.34 576.61 C 767.47 580.58 766.19 585.13 764.95 589.00 C 763.72 592.88 762.15 597.34 760.53 601.07 C 758.92 604.79 756.78 609.02 754.73 612.53 C 752.69 616.03 750.06 619.98 747.61 623.22 C 745.17 626.47 742.09 630.07 739.30 633.02 C 736.50 635.97 733.07 639.24 729.95 641.85 C 726.83 644.45 722.99 647.23 719.60 649.47 C 716.21 651.71 712.16 654.20 708.53 656.01 C 704.90 657.82 700.49 659.56 696.66 660.93 C 692.83 662.29 688.30 663.67 684.35 664.62 C 680.40 665.57 675.75 666.42 671.72 666.96 C 667.70 667.49 662.97 668.03 658.92 667.99 C 654.87 667.95 650.16 667.30 646.14 666.69 C 642.12 666.09 637.48 665.15 633.53 664.18 C 629.59 663.20 625.02 661.94 621.21 660.53 C 617.41 659.11 613.11 657.12 609.50 655.24 C 605.90 653.36 601.83 650.92 598.46 648.65 C 595.08 646.39 591.30 643.55 588.20 640.93 C 585.11 638.31 581.76 634.97 578.89 632.09 C 576.02 629.21 572.85 625.71 570.07 622.74 C 567.29 619.76 564.12 616.28 561.35 613.29 C 558.58 610.31 555.35 606.88 552.57 603.90 C 549.80 600.92 546.60 597.46 543.82 594.49 C 541.04 591.51 537.83 588.06 535.04 585.10 C 532.25 582.13 528.94 578.77 526.18 575.78 C 523.41 572.80 520.30 569.25 517.56 566.24 C 514.82 563.23 511.68 559.72 508.88 556.76 C 506.09 553.80 502.69 550.52 499.91 547.55 C 497.13 544.57 494.09 540.96 491.30 537.99 C 488.51 535.03 485.08 531.79 482.28 528.83 C 479.49 525.87 476.40 522.31 473.64 519.31 C 470.88 516.31 467.66 512.87 464.88 509.91 C 462.09 506.94 458.81 503.55 456.04 500.56 C 453.27 497.58 450.17 494.03 447.39 491.06 C 444.61 488.08 441.31 484.71 438.48 481.79 C 435.65 478.86 432.57 475.26 429.52 472.59 C 426.47 469.92 422.58 467.19 419.21 464.92 C 415.84 462.64 411.84 460.09 408.24 458.21 C 404.65 456.34 400.30 454.42 396.48 453.05 C 392.66 451.68 388.09 450.40 384.12 449.56 C 380.15 448.71 375.45 448.09 371.41 447.73 C 367.37 447.36 362.64 447.03 358.60 447.25 C 354.56 447.46 349.86 448.28 345.88 449.10 C 341.90 449.91 337.29 451.05 333.46 452.39 C 329.63 453.73 325.39 455.85 321.70 457.57 C 318.01 459.28 313.67 461.20 310.15 463.22 C 306.63 465.24 302.45 467.62 299.47 470.31 C 296.50 473.01 293.99 477.11 291.38 480.23 C 288.78 483.35 285.49 486.78 283.02 489.99 C 280.56 493.21 277.69 496.99 275.78 500.54 C 273.88 504.10 272.36 508.63 270.97 512.45 C 269.59 516.28 268.10 520.77 267.04 524.69 C 265.98 528.62 264.79 533.23 264.27 537.25 C 263.74 541.26 263.75 546.00 263.71 550.07 C 263.67 554.13 263.72 558.87 264.01 562.92 C 264.29 566.98 264.62 571.74 265.52 575.68 C 266.43 579.62 268.31 583.99 269.74 587.80 C 271.17 591.61 272.79 596.07 274.56 599.72 C 276.34 603.37 278.72 607.45 280.95 610.84 C 283.18 614.23 286.09 617.97 288.63 621.15 C 291.17 624.32 294.04 628.13 297.01 630.87 C 299.98 633.60 304.02 636.18 307.40 638.44 C 310.79 640.69 314.81 643.16 318.38 645.11 C 321.94 647.06 326.14 649.35 329.92 650.77 C 333.70 652.19 338.30 653.24 342.27 654.08 C 346.23 654.92 350.91 655.66 354.94 656.07 C 358.98 656.48 363.71 656.76 367.76 656.67 C 371.81 656.57 376.58 656.27 380.54 655.46 C 384.50 654.65 388.88 652.72 392.78 651.55 C 396.68 650.38 401.49 649.68 405.15 648.06 C 408.82 646.43 412.61 643.61 415.92 641.29 C 419.24 638.98 422.88 635.92 426.10 633.43 C 429.32 630.94 433.40 628.41 436.26 625.57 C 439.13 622.73 441.61 618.61 444.21 615.48 C 446.82 612.36 449.91 608.79 452.70 605.83 C 455.49 602.86 460.06 599.96 461.83 596.78 C 463.59 593.59 464.90 588.98 463.85 585.71 C 462.81 582.45 458.17 578.88 455.24 576.17 C 452.31 573.45 448.46 568.52 445.33 568.58 C 442.19 568.64 438.34 573.74 435.44 576.53 C 432.54 579.32 429.78 583.26 426.99 586.22 C 424.19 589.18 420.68 592.34 417.79 595.21 C 414.91 598.08 411.74 601.60 408.75 604.35 C 405.77 607.10 402.37 610.52 398.93 612.57 C 395.48 614.62 390.85 615.98 387.01 617.29 C 383.17 618.61 378.65 620.17 374.68 620.88 C 370.71 621.59 365.96 621.93 361.92 621.79 C 357.88 621.65 353.14 620.89 349.19 619.98 C 345.24 619.07 340.55 617.88 336.99 616.06 C 333.43 614.24 329.96 610.94 326.72 608.51 C 323.49 606.07 319.39 603.55 316.56 600.69 C 313.72 597.83 311.03 593.84 308.82 590.44 C 306.61 587.04 304.17 582.93 302.59 579.20 C 301.02 575.48 299.63 570.90 298.86 566.93 C 298.08 562.96 297.81 558.19 297.68 554.13 C 297.54 550.07 297.52 545.29 298.01 541.28 C 298.50 537.27 299.53 532.63 300.76 528.79 C 301.99 524.95 304.01 520.66 305.80 517.03 C 307.59 513.40 309.66 509.07 312.08 505.85 C 314.49 502.63 318.00 499.34 321.06 496.68 C 324.12 494.02 327.92 491.13 331.40 489.05 C 334.87 486.98 339.20 484.92 343.01 483.60 C 346.83 482.28 351.49 481.31 355.50 480.70 C 359.50 480.09 364.27 479.55 368.29 479.75 C 372.32 479.95 377.03 480.95 380.94 481.98 C 384.86 483.02 389.39 484.54 393.04 486.28 C 396.69 488.01 400.75 490.54 404.02 492.93 C 407.29 495.33 410.76 498.58 413.69 501.40 C 416.62 504.22 419.72 507.78 422.52 510.73 C 425.33 513.67 428.64 517.03 431.43 520.00 C 434.22 522.97 437.38 526.46 440.12 529.47 C 442.86 532.48 445.99 536.01 448.73 539.02 C 451.47 542.03 454.63 545.53 457.42 548.49 C 460.21 551.46 463.57 554.78 466.35 557.74 C 469.14 560.71 472.25 564.24 475.03 567.22 C 477.81 570.20 481.11 573.56 483.89 576.54 C 486.68 579.51 489.86 582.99 492.60 586.00 C 495.34 589.01 498.47 592.54 501.22 595.54 C 503.96 598.54 507.17 602.00 509.96 604.96 C 512.75 607.92 516.07 611.27 518.84 614.26 C 521.61 617.24 524.71 620.80 527.47 623.79 C 530.23 626.78 533.48 630.19 536.27 633.16 C 539.06 636.12 542.32 639.53 545.09 642.52 C 547.85 645.51 550.89 649.12 553.72 652.05 C 556.54 654.98 559.93 658.27 562.92 661.02 C 565.92 663.78 569.43 666.94 572.64 669.45 C 575.84 671.96 579.71 674.68 583.14 676.87 C 586.56 679.06 590.68 681.37 594.27 683.27 C 597.87 685.17 602.11 687.26 605.84 688.88 C 609.57 690.50 613.97 692.24 617.84 693.49 C 621.71 694.74 626.30 695.89 630.27 696.77 C 634.24 697.64 638.89 698.57 642.92 699.02 C 646.96 699.48 651.68 699.57 655.75 699.67 C 659.81 699.77 664.55 699.89 668.61 699.67 C 672.66 699.44 677.35 698.88 681.36 698.25 C 685.38 697.61 690.00 696.62 693.95 695.64 C 697.89 694.65 702.44 693.34 706.28 692.02 C 710.13 690.69 714.55 688.99 718.23 687.28 C 721.92 685.58 726.07 683.30 729.58 681.24 C 733.08 679.19 737.06 676.63 740.39 674.28 C 743.72 671.94 747.48 669.08 750.59 666.46 C 753.70 663.84 757.18 660.65 760.02 657.75 C 762.87 654.84 766.00 651.29 768.56 648.13 C 771.12 644.97 773.89 641.15 776.19 637.79 C 778.49 634.44 781.05 630.46 783.10 626.94 C 785.14 623.43 787.46 619.30 789.13 615.60 C 790.80 611.90 792.30 607.40 793.64 603.56 C 794.97 599.71 796.44 595.23 797.55 591.32 C 798.67 587.41 799.89 582.84 800.66 578.85 C 801.43 574.86 802.10 570.17 802.41 566.12 C 802.73 562.06 802.63 557.34 802.67 553.27 C 802.70 549.19 802.91 544.46 802.63 540.41 C 802.36 536.35 801.63 531.67 800.93 527.67 C 800.23 523.66 799.20 519.05 798.23 515.09 C 797.26 511.14 796.08 506.56 794.79 502.71 C 793.50 498.85 791.72 494.47 790.09 490.75 C 788.45 487.02 786.34 482.79 784.43 479.19 C 782.53 475.60 780.26 471.45 778.05 468.04 C 775.84 464.63 773.00 460.84 770.49 457.65 C 767.97 454.45 764.90 450.86 762.16 447.85 C 759.43 444.84 756.22 441.35 753.21 438.62 C 750.20 435.90 746.40 433.06 743.13 430.64 C 739.86 428.22 736.02 425.46 732.56 423.34 C 729.09 421.21 724.91 419.00 721.26 417.21 C 717.61 415.43 713.29 413.49 709.49 412.06 C 705.69 410.62 701.17 409.22 697.25 408.13 C 693.33 407.03 688.73 405.93 684.74 405.15 C 680.75 404.38 676.07 403.58 672.02 403.24 C 667.98 402.90 663.24 402.97 659.17 403.00 C 655.10 403.03 650.38 403.05 646.33 403.42 Z" fill="url(#g)" fill-rule="evenodd"/>
  <path d="M 201.33 475.46 C 199.94 475.72 198.10 476.24 196.78 476.75 C 195.46 477.25 193.73 478.09 192.53 478.84 C 191.33 479.58 189.84 480.78 188.76 481.71 C 187.69 482.63 186.34 483.98 185.36 485.00 C 184.38 486.03 183.05 487.41 182.22 488.55 C 181.38 489.69 180.37 491.32 179.79 492.60 C 179.21 493.89 178.70 495.74 178.35 497.11 C 178.00 498.48 177.77 500.38 177.45 501.76 C 177.14 503.15 176.42 504.95 176.26 506.35 C 176.10 507.74 176.28 509.65 176.38 511.07 C 176.49 512.48 176.85 514.36 176.94 515.77 C 177.03 517.19 177.01 519.09 177.00 520.51 C 176.98 521.93 176.96 523.83 176.84 525.25 C 176.72 526.66 176.33 528.53 176.21 529.95 C 176.08 531.36 176.03 533.26 176.00 534.68 C 175.98 536.10 175.96 538.00 176.04 539.42 C 176.12 540.84 176.42 542.71 176.55 544.13 C 176.67 545.54 176.90 547.44 176.86 548.85 C 176.81 550.26 176.35 552.14 176.26 553.55 C 176.17 554.96 176.19 556.86 176.28 558.28 C 176.37 559.69 176.83 561.57 176.87 562.98 C 176.90 564.39 176.63 566.28 176.52 567.70 C 176.41 569.11 176.10 571.00 176.12 572.41 C 176.15 573.83 176.53 575.70 176.69 577.12 C 176.86 578.53 176.99 580.42 177.22 581.83 C 177.44 583.23 177.81 585.10 178.19 586.46 C 178.57 587.83 179.13 589.67 179.73 590.94 C 180.34 592.21 181.36 593.84 182.23 594.95 C 183.10 596.06 184.49 597.38 185.55 598.33 C 186.60 599.29 188.06 600.51 189.24 601.30 C 190.41 602.08 192.10 602.99 193.39 603.57 C 194.68 604.16 196.47 604.84 197.84 605.19 C 199.21 605.55 201.11 605.77 202.51 605.95 C 203.92 606.14 205.82 606.42 207.23 606.42 C 208.64 606.43 210.75 606.54 211.93 606.00 C 213.11 605.45 214.66 603.97 215.10 602.79 C 215.54 601.60 215.02 599.49 214.87 598.08 C 214.72 596.67 214.33 594.81 214.09 593.40 C 213.85 592.00 213.57 590.13 213.26 588.74 C 212.95 587.35 212.38 585.54 212.04 584.16 C 211.70 582.78 211.23 580.94 210.99 579.54 C 210.75 578.14 210.63 576.24 210.45 574.83 C 210.27 573.42 209.98 571.55 209.80 570.14 C 209.62 568.72 209.42 566.84 209.26 565.43 C 209.10 564.01 208.81 562.14 208.72 560.72 C 208.63 559.30 208.67 557.40 208.67 555.98 C 208.66 554.56 208.67 552.66 208.67 551.24 C 208.67 549.82 208.67 547.92 208.67 546.50 C 208.67 545.08 208.63 543.18 208.67 541.76 C 208.72 540.34 208.83 538.44 208.99 537.03 C 209.15 535.62 209.52 533.76 209.74 532.35 C 209.97 530.95 210.32 529.08 210.47 527.67 C 210.61 526.26 210.55 524.34 210.74 522.94 C 210.92 521.53 211.36 519.69 211.68 518.30 C 211.99 516.92 212.51 515.09 212.84 513.71 C 213.17 512.33 213.49 510.45 213.90 509.09 C 214.31 507.74 215.08 505.99 215.59 504.67 C 216.10 503.35 216.89 501.62 217.32 500.27 C 217.75 498.91 218.05 497.03 218.44 495.66 C 218.82 494.29 219.42 492.49 219.91 491.15 C 220.40 489.82 221.16 488.08 221.70 486.77 C 222.23 485.45 223.11 483.72 223.46 482.37 C 223.82 481.02 224.55 478.80 224.07 477.74 C 223.58 476.68 221.53 475.73 220.25 475.32 C 218.97 474.91 216.95 475.05 215.53 475.00 C 214.11 474.96 212.21 475.00 210.79 475.00 C 209.36 475.00 207.46 474.95 206.05 475.02 C 204.63 475.09 202.72 475.20 201.33 475.46 Z" fill="url(#g)" fill-rule="evenodd"/>
  <path d="M 801.84 477.01 C 801.02 477.81 800.86 480.07 801.02 481.39 C 801.18 482.71 802.35 484.46 802.89 485.79 C 803.44 487.12 804.13 488.90 804.63 490.25 C 805.12 491.59 805.73 493.41 806.20 494.76 C 806.68 496.12 807.34 497.91 807.79 499.28 C 808.24 500.64 808.77 502.48 809.19 503.85 C 809.61 505.22 810.22 507.04 810.60 508.42 C 810.98 509.80 811.42 511.67 811.73 513.07 C 812.05 514.47 812.41 516.35 812.68 517.76 C 812.96 519.16 813.34 521.04 813.60 522.45 C 813.85 523.87 814.17 525.75 814.38 527.17 C 814.60 528.59 814.82 530.49 815.01 531.91 C 815.19 533.34 815.48 535.23 815.62 536.66 C 815.77 538.08 815.93 539.99 815.99 541.42 C 816.05 542.86 816.00 544.77 816.00 546.21 C 816.00 547.64 816.00 549.56 816.00 550.99 C 816.00 552.43 816.00 554.34 816.00 555.78 C 816.00 557.21 816.04 559.13 816.00 560.56 C 815.95 561.99 815.85 563.91 815.72 565.33 C 815.58 566.76 815.25 568.65 815.09 570.08 C 814.93 571.50 814.83 573.41 814.65 574.84 C 814.47 576.26 814.13 578.15 813.88 579.56 C 813.64 580.97 813.30 582.86 813.01 584.26 C 812.73 585.67 812.29 587.53 811.98 588.93 C 811.67 590.34 811.26 592.21 810.94 593.61 C 810.63 595.00 810.15 596.86 809.87 598.27 C 809.59 599.67 808.67 601.86 809.07 602.96 C 809.48 604.05 811.34 605.15 812.58 605.55 C 813.83 605.96 815.93 605.69 817.36 605.66 C 818.80 605.64 820.73 605.60 822.14 605.38 C 823.54 605.16 825.41 604.63 826.76 604.17 C 828.11 603.70 829.89 602.95 831.13 602.25 C 832.38 601.56 833.96 600.45 835.08 599.56 C 836.19 598.66 837.61 597.35 838.58 596.30 C 839.55 595.25 840.78 593.76 841.56 592.57 C 842.34 591.37 843.22 589.64 843.75 588.32 C 844.28 587.00 844.84 585.14 845.12 583.74 C 845.41 582.35 845.56 580.43 845.64 579.00 C 845.72 577.57 845.66 575.65 845.67 574.21 C 845.67 572.78 845.67 570.86 845.67 569.43 C 845.67 567.99 845.67 566.08 845.67 564.64 C 845.67 563.21 845.67 561.29 845.67 559.86 C 845.67 558.42 845.67 556.51 845.67 555.07 C 845.67 553.64 845.67 551.73 845.67 550.29 C 845.67 548.86 845.67 546.94 845.67 545.51 C 845.67 544.07 845.67 542.16 845.67 540.72 C 845.67 539.29 845.67 537.37 845.67 535.94 C 845.67 534.50 845.67 532.59 845.67 531.15 C 845.67 529.72 845.67 527.80 845.67 526.37 C 845.67 524.93 845.67 523.02 845.67 521.59 C 845.67 520.15 845.67 518.24 845.67 516.80 C 845.67 515.37 845.67 513.45 845.67 512.02 C 845.67 510.58 845.69 508.67 845.67 507.23 C 845.64 505.80 845.68 503.87 845.50 502.45 C 845.32 501.04 844.87 499.16 844.46 497.79 C 844.05 496.42 843.37 494.62 842.77 493.32 C 842.16 492.02 841.24 490.34 840.44 489.15 C 839.65 487.96 838.46 486.43 837.48 485.39 C 836.50 484.35 835.06 483.07 833.92 482.21 C 832.78 481.35 831.15 480.31 829.88 479.67 C 828.60 479.03 826.79 478.34 825.42 477.95 C 824.05 477.56 822.14 477.29 820.73 477.05 C 819.31 476.82 817.41 476.53 815.99 476.37 C 814.56 476.22 812.66 476.06 811.22 476.01 C 809.79 475.96 807.85 475.86 806.44 476.01 C 805.03 476.16 802.65 476.20 801.84 477.01 Z" fill="url(#g)" fill-rule="evenodd"/>
</svg>